REM DIRINDEX 1\2,1\4,1\3\5,1\3\6,1\3\7
REM DIRNAME cjc082,folder01,folder02,folder03,folder04,folder05,folder06
TITLE ""
FILE "CD1Track45.mp3" MP3
  TRACK 01 AUDIO
    TITLE "0:"
    INDEX 01 00:00:00
  TRACK 02 AUDIO
    TITLE "5:cjc082_0806"
    INDEX 01 00:00:27
  TRACK 03 AUDIO
    TITLE "0:"
    INDEX 01 00:01:66
  TRACK 04 AUDIO
    TITLE "6:cjc082_0807"
    INDEX 01 00:02:42
  TRACK 05 AUDIO
    TITLE "0:"
    INDEX 01 00:03:72
  TRACK 06 AUDIO
    TITLE "5:cjc082_0808"
    INDEX 01 00:04:46
  TRACK 07 AUDIO
    TITLE "0:"
    INDEX 01 00:06:57
  TRACK 08 AUDIO
    TITLE "6:cjc082_0809"
    INDEX 01 00:07:29
  TRACK 09 AUDIO
    TITLE "0:"
    INDEX 01 00:10:14
  TRACK 10 AUDIO
    TITLE "5:cjc082_0810"
    INDEX 01 00:10:61
  TRACK 11 AUDIO
    TITLE "0:"
    INDEX 01 00:12:09
  TRACK 12 AUDIO
    TITLE "6:cjc082_0811"
    INDEX 01 00:12:60
  TRACK 13 AUDIO
    TITLE "0:"
    INDEX 01 00:13:71
  TRACK 14 AUDIO
    TITLE "5:cjc082_0812"
    INDEX 01 00:14:47
  TRACK 15 AUDIO
    TITLE "0:"
    INDEX 01 00:16:04
  TRACK 16 AUDIO
    TITLE "6:cjc082_0813"
    INDEX 01 00:16:61
  TRACK 17 AUDIO
    TITLE "0:"
    INDEX 01 00:18:15
  TRACK 18 AUDIO
    TITLE "5:cjc082_0814"
    INDEX 01 00:18:66
  TRACK 19 AUDIO
    TITLE "0:"
    INDEX 01 00:19:67
  TRACK 20 AUDIO
    TITLE "6:cjc082_0815"
    INDEX 01 00:20:41
  TRACK 21 AUDIO
    TITLE "0:"
    INDEX 01 00:22:23
  TRACK 22 AUDIO
    TITLE "5:cjc082_0816"
    INDEX 01 00:22:70
  TRACK 23 AUDIO
    TITLE "0:"
    INDEX 01 00:24:12
  TRACK 24 AUDIO
    TITLE "6:cjc082_0817"
    INDEX 01 00:24:57
  TRACK 25 AUDIO
    TITLE "0:"
    INDEX 01 00:25:62
  TRACK 26 AUDIO
    TITLE "5:cjc082_0818"
    INDEX 01 00:26:36
  TRACK 27 AUDIO
    TITLE "0:"
    INDEX 01 00:27:45
  TRACK 28 AUDIO
    TITLE "6:cjc082_0819"
    INDEX 01 00:28:19
  TRACK 29 AUDIO
    TITLE "0:"
    INDEX 01 00:29:15
  TRACK 30 AUDIO
    TITLE "5:cjc082_0820"
    INDEX 01 00:29:64
  TRACK 31 AUDIO
    TITLE "0:"
    INDEX 01 00:31:02
  TRACK 32 AUDIO
    TITLE "6:cjc082_0821"
    INDEX 01 00:31:51
  TRACK 33 AUDIO
    TITLE "0:"
    INDEX 01 00:33:48
  TRACK 34 AUDIO
    TITLE "5:cjc082_0822"
    INDEX 01 00:34:24
  TRACK 35 AUDIO
    TITLE "0:"
    INDEX 01 00:36:01
  TRACK 36 AUDIO
    TITLE "6:cjc082_0823"
    INDEX 01 00:36:54
  TRACK 37 AUDIO
    TITLE "0:"
    INDEX 01 00:38:41
  TRACK 38 AUDIO
    TITLE "5:cjc082_0824"
    INDEX 01 00:39:09
  TRACK 39 AUDIO
    TITLE "0:"
    INDEX 01 00:40:48
  TRACK 40 AUDIO
    TITLE "6:cjc082_0825"
    INDEX 01 00:41:20
  TRACK 41 AUDIO
    TITLE "0:"
    INDEX 01 00:44:71
  TRACK 42 AUDIO
    TITLE "5:cjc082_0826"
    INDEX 01 00:45:45
  TRACK 43 AUDIO
    TITLE "0:"
    INDEX 01 00:46:66
  TRACK 44 AUDIO
    TITLE "6:cjc082_0827"
    INDEX 01 00:47:44
  TRACK 45 AUDIO
    TITLE "0:"
    INDEX 01 00:49:04
  TRACK 46 AUDIO
    TITLE "5:cjc082_0828"
    INDEX 01 00:49:47
  TRACK 47 AUDIO
    TITLE "0:"
    INDEX 01 00:51:18
  TRACK 48 AUDIO
    TITLE "6:cjc082_0829"
    INDEX 01 00:51:67
  TRACK 49 AUDIO
    TITLE "0:"
    INDEX 01 00:53:72
  TRACK 50 AUDIO
    TITLE "5:cjc082_0830"
    INDEX 01 00:54:42
  TRACK 51 AUDIO
    TITLE "0:"
    INDEX 01 00:55:48
  TRACK 52 AUDIO
    TITLE "6:cjc082_0831"
    INDEX 01 00:56:27
  TRACK 53 AUDIO
    TITLE "0:"
    INDEX 01 00:59:20
  TRACK 54 AUDIO
    TITLE "5:cjc082_0832"
    INDEX 01 00:59:69
  TRACK 55 AUDIO
    TITLE "0:"
    INDEX 01 01:01:23
  TRACK 56 AUDIO
    TITLE "6:cjc082_0833"
    INDEX 01 01:01:74
  TRACK 57 AUDIO
    TITLE "0:"
    INDEX 01 01:03:61
  TRACK 58 AUDIO
    TITLE "5:cjc082_0834"
    INDEX 01 01:04:35
  TRACK 59 AUDIO
    TITLE "0:"
    INDEX 01 01:06:08
  TRACK 60 AUDIO
    TITLE "6:cjc082_0835"
    INDEX 01 01:06:53
  TRACK 61 AUDIO
    TITLE "0:"
    INDEX 01 01:07:70
  TRACK 62 AUDIO
    TITLE "7:cjc082_0836"
    INDEX 01 01:09:36
  TRACK 63 AUDIO
    TITLE "0:"
    INDEX 01 01:19:66
